<svg xmlns="http://www.w3.org/2000/svg" width="560" height="431" viewBox="0 0 560 431">
  <defs>
    <linearGradient id="python-image-a" x1=".954%" x2="74.065%" y1=".003%" y2="64.121%">
      <stop offset="0%" stop-color="#5A9FD4"/>
      <stop offset="100%" stop-color="#306998"/>
    </linearGradient>
    <linearGradient id="python-image-b" x1="50.012%" x2="24.201%" y1="82.327%" y2="44.947%">
      <stop offset="0%" stop-color="#FFD43B"/>
      <stop offset="100%" stop-color="#FFE873"/>
    </linearGradient>
    <radialGradient id="python-image-c" cx="50.066%" cy="49.8%" r="50.003%" fx="50.066%" fy="49.8%" gradientTransform="matrix(0 -1 .1939 0 .404 .999)">
      <stop offset="0%" stop-color="#B8B8B8" stop-opacity=".498"/>
      <stop offset="100%" stop-color="#7F7F7F" stop-opacity="0"/>
    </radialGradient>
  </defs>
  <g fill="none">
    <path fill="#646464" d="M60.9226691 98.9763519C60.9226691 74.4136165 53.9182407 61.7948486 39.9026359 61.1031782 34.3287845 60.840006 28.8848321 61.7280434 23.5910227 63.7838229 19.3650851 65.2965567 16.5208013 66.7934327 15.0244314 68.3049857L15.0244314 126.945142C23.985781 132.569604 31.945052 135.182768 38.8786263 134.772827 53.5622835 133.802633 60.9108601 121.880765 60.9108601 98.9746649L60.9226691 98.9763519zM78.1975599 99.9958066C78.1975599 112.47624 75.270613 122.837801 69.3846664 131.070366 62.8239193 140.394421 53.7309836 145.195626 42.1058593 145.458798 33.3418888 145.738334 24.3079982 142.992402 15.0294924 137.236355L15.0294924 190.528718 0 185.167429 0 66.8749149C2.46639554 63.850122 5.63964452 61.2504534 9.48769393 59.04723 18.4321735 53.8343967 29.3099563 51.1537521 42.0974243 51.022166L42.3111673 51.235909C54.0020847 51.0879084 63.0106703 55.8886579 69.3369242 65.624341 75.2397409 74.5536376 78.2004278 86.0033138 78.2004278 99.9885525L78.1975599 99.9958066zM170.071637 134.976954C170.071637 151.717066 168.394421 163.301702 165.039313 169.762916 161.668685 176.208947 155.254707 181.355987 145.790631 185.187167 138.111402 188.21196 129.807983 189.856786 120.890496 190.136828L118.40723 180.666004C127.468113 179.432806 133.848351 178.199608 137.554692 176.966411 144.839163 174.500015 149.837747 170.717759 152.584184 165.653382 154.787408 161.52529 155.872149 153.650369 155.872149 141.984757L155.872149 138.070914C145.594939 142.740533 134.818376 145.06016 123.566079 145.06016 116.166893 145.06016 109.638199 142.74222 104.013737 138.070914 97.6992921 132.989667 94.5429131 126.543636 94.5429131 118.737882L94.5429131 56.1838831 109.572405 51.0368429 109.572405 113.995722C109.572405 120.721795 111.743576 125.900889 116.08423 129.534689 120.424883 133.168489 126.049345 134.911161 132.939057 134.779575 139.828769 134.631575 147.211086 131.967344 155.055641 126.754511L155.055641 53.3024853 170.085133 53.3024853 170.085133 134.970206 170.071637 134.976954zM228.779274 144.64347C226.987679 144.791454 225.342853 144.857213 223.829613 144.857213 215.328815 144.857213 208.702274 142.834499 203.97361 138.773888 199.255069 134.711589 196.886519 129.105685 196.886519 121.9528L196.886519 62.7559331 186.592439 62.7559331 186.592439 53.3002922 196.886519 53.3002922 196.886519 28.1977165 211.899141 22.8532972 211.899141 53.3036662 228.786022 53.3036662 228.786022 62.7593071 211.899141 62.7593071 211.899141 121.551294C211.899141 127.190938 213.411875 131.187444 216.437174 133.522253 219.035156 135.445435 223.163247 136.547046 228.786022 136.827088L228.786022 144.654773 228.779274 144.64347zM319.708631 143.41196L304.679138 143.41196 304.679138 85.3959934C304.679138 79.4931767 303.297822 74.4119295 300.551047 70.1691219 297.377798 65.3679169 292.971351 62.9673144 287.314837 62.9673144 280.425124 62.9673144 271.807923 66.6011146 261.46998 73.8687152L261.46998 143.406899 246.440488 143.406899 246.440488 4.73541196 261.46998 0 261.46998 63.1613195C271.07239 56.1720741 281.562163 52.6698599 292.96629 52.6698599 300.925561 52.6698599 307.369905 55.3505046 312.299322 60.6949239 317.248983 66.0393433 319.715379 72.6979364 319.715379 80.6521464L319.715379 143.391716 319.708631 143.41196zM399.672481 96.6145504C399.672481 87.1757795 397.880886 79.3902696 394.311191 73.2158458 390.068384 65.7019431 383.475584 61.7391776 374.556409 61.3275493 358.07947 62.281211 349.858714 74.0880253 349.858714 96.7208315 349.858714 107.095888 351.569333 115.767073 355.022624 122.717518 359.429071 131.581021 366.040428 135.953728 374.861756 135.806959 391.404489 135.675407 399.677542 122.619672 399.677542 96.6179244L399.672481 96.6145504zM416.13255 96.7132062C416.13255 110.146796 412.696129 121.326552 405.83847 130.250787 398.290827 140.247955 387.871908 145.26341 374.56147 145.26341 361.374183 145.26341 351.095285 140.247955 343.672481 130.250787 336.946408 121.321491 333.592649 110.141735 333.592649 96.7132062 333.592649 84.0843163 337.22645 73.4663317 344.49405 64.8120163 352.173279 55.6364175 362.275041 51.0325917 374.741979 51.0325917 387.222413 51.0325917 397.381533 55.6364175 405.209218 64.8120163 412.476819 73.4612707 416.110619 84.0775683 416.110619 96.7132062L416.13255 96.7132062zM502.242145 143.41196L487.212653 143.41196 487.212653 82.1063413C487.212653 75.3802681 485.189938 70.1353818 481.14451 66.3531255 477.099081 62.5877391 471.705739 60.762404 464.981353 60.9108601 457.845338 61.0424124 451.053472 63.3772556 444.60238 67.9001054L444.60238 143.410273 429.572887 143.410273 429.572887 66.0444043C438.222142 59.7468293 446.181413 55.6356078 453.443952 53.7124266 460.301612 51.9208315 466.351197 51.0317819 471.562344 51.0317819 475.130351 51.0317819 478.485796 51.377111 481.642175 52.0677692 487.544992 53.4325531 492.346197 55.9647417 496.04579 59.681205 500.173882 63.7924266 502.228649 68.7252177 502.228649 74.4964483L502.228649 143.410441 502.242145 143.41196zM531.595963 39.8975749L534.231059 39.8975749 534.231059 23.3717126 540.472963 23.3717126 540.472963 21.4012954 525.354059 21.4012954 525.354059 23.3717126 531.595963 23.3717126 531.595963 39.8975749M542.809459 39.8975749L545.059919 39.8975749 545.059919 24.8039765 549.945474 39.8958879 552.452357 39.8958879 557.543726 24.8545865 557.543726 39.8975749 560 39.8975749 560 21.4080434 556.750836 21.4080434 551.187106 37.2540443 546.441573 21.4080434 542.809459 21.4080434 542.809459 39.8975749" transform="translate(0 239.554)"/>
    <g transform="translate(185.57)">
      <path fill="url(#python-image-a)" d="M92.6460428,0.00825700639 C84.91283,0.0441901288 77.5288263,0.703638841 71.0355593,1.85383616 C51.8880973,5.23627327 48.4128751,12.3132427 48.4128751,25.3706309 L48.4128751,42.6117816 L93.6413734,42.6117816 L93.6413734,48.3577072 L48.4128751,48.3577072 L31.4416445,48.3577072 C18.2965323,48.3577072 6.77768912,56.2596202 3.18437687,71.2840516 C-0.969019721,88.5083323 -1.15290284,99.271399 3.18437687,117.25483 C6.39980088,130.646245 14.0790297,140.181175 27.2241419,140.181175 L42.7766046,140.181175 L42.7766046,119.515412 C42.7766046,104.585452 55.6939717,91.4099741 71.0338723,91.4099741 L116.211761,91.4099741 C128.788353,91.4099741 138.834445,81.0551617 138.834445,68.4330198 L138.834445,25.3638829 C138.834445,13.1061332 128.493128,3.90522944 116.211761,1.84708816 C108.441434,0.553664447 100.379256,-0.03391802 92.6443558,0.00150900217 L92.6460428,0.00825700639 Z M68.1845275,13.8737187 C72.8575204,13.8737187 76.6718298,17.7521341 76.6718298,22.5195991 C76.6718298,27.270194 72.8558334,31.1131824 68.1845275,31.1131824 C63.4963516,31.1131824 59.6972252,27.271881 59.6972252,22.5195991 C59.6972252,17.7521341 63.4963516,13.8737187 68.1845275,13.8737187 Z"/>
      <path fill="url(#python-image-b)" d="M144.470715,48.3442112 L144.470715,68.4363938 C144.470715,84.0091005 131.268245,97.1154117 116.213448,97.1154117 L71.0355593,97.1154117 C58.6597195,97.1154117 48.4128751,107.706404 48.4128751,120.092366 L48.4128751,163.161503 C48.4128751,175.419253 59.0730348,182.629495 71.0355593,186.138457 C85.3531372,190.349212 99.0903868,191.110049 116.213448,186.138457 C127.600705,182.842057 138.836132,176.205395 138.836132,163.161503 L138.836132,145.920352 L93.6582434,145.920352 L93.6582434,140.174427 L138.836132,140.174427 L161.458816,140.174427 C174.603928,140.174427 179.509727,131.005576 184.0815,117.248082 C188.803416,103.07896 188.602663,89.4463049 184.0815,71.2773035 C180.832336,58.1912364 174.627546,48.3509592 161.458816,48.3509592 L144.487585,48.3509592 L144.470715,48.3442112 Z M119.064479,157.425699 C123.752655,157.425699 127.551782,161.267001 127.551782,166.019283 C127.551782,170.786748 123.752655,174.665163 119.064479,174.665163 C114.391486,174.665163 110.577177,170.786748 110.577177,166.019283 C110.577177,161.268688 114.393173,157.425699 119.064479,157.425699 Z"/>
      <path fill="url(#python-image-c)" d="M154.825612,215.453222 C154.825612,221.944752 127.684655,227.207176 94.2045871,227.207176 C60.7245196,227.207176 33.5835623,221.944752 33.5835623,215.453222 C33.5835623,208.961692 60.7245196,203.699267 94.2045871,203.699267 C127.684655,203.699267 154.825612,208.961692 154.825612,215.453222 Z" opacity=".444"/>
    </g>
  </g>
</svg>
